<?xml version="1.0" encoding="utf-8"?>
<!-- Generator: Adobe Illustrator 22.0.1, SVG Export Plug-In . SVG Version: 6.00 Build 0)  -->
<svg version="1.1" id="Calque_1" xmlns="http://www.w3.org/2000/svg" xmlns:xlink="http://www.w3.org/1999/xlink" x="0px" y="0px"
	 viewBox="0 0 560 560" style="enable-background:new 0 0 560 560;" xml:space="preserve">
<style type="text/css">
	.st0{opacity:0.84;fill:none;stroke:#FFFFFF;stroke-miterlimit:10;}
	.st1{fill:none;stroke:#FFFFFF;stroke-miterlimit:10;}
</style>
<g>
	<g>
		<polyline class="st0" points="85.1,199.6 85.1,271.6 107.2,293.7 175.8,293.7 198.1,314.2 343.8,314.2 366.2,293.8 442.1,293.8 
			464.2,271.8 464.2,199.6 464.2,256.9 464.2,184.8 442.1,162.7 366.2,162.7 343.8,185.1 198.1,185.1 175.8,162.8 107.2,162.8 
			85.1,184.9 85.1,256.9 		"/>
		<path class="st0" d="M134.4,337"/>
		<path class="st1" d="M43.7,228.2"/>
		<path class="st0" d="M464.2,184.8"/>
		<path class="st0" d="M366.2,293.8"/>
		<path class="st0" d="M151.8,226.7"/>
		<path class="st0" d="M75.8,287.6"/>
		<path class="st0" d="M463.6,217.3"/>
		<path class="st0" d="M402.7,293.3"/>
		<line class="st0" x1="175.8" y1="293.7" x2="85.3" y2="203.2"/>
		<path class="st0" d="M111,283.5"/>
		<path class="st0" d="M201.6,193"/>
		<line class="st1" x1="366.2" y1="293.8" x2="464.2" y2="195.9"/>
	</g>
	<g>
		<polyline class="st1" points="197.9,184.8 217.3,165.4 274.4,165.4 		"/>
		<polyline class="st1" points="343.7,184.8 324.3,165.4 267.2,165.4 		"/>
	</g>
</g>
</svg>
