<svg xmlns="http://www.w3.org/2000/svg" viewBox="0 0 110.95 849.15"><defs><style>.cls-1,.cls-2{fill:none;stroke:#17c7ff;}.cls-1{stroke-width:3px;}.cls-2{stroke-width:1.5px;}</style></defs><title>Calque 2</title><g id="Calque_2" data-name="Calque 2"><g id="Calque_2-2" data-name="Calque 2"><path class="cls-1" d="M97.34,91.57c-24.6-119.73-58.76-120.46-83.73,0V838.81c7.53,11.69,79.69,11.87,83.73,0Z"/><path class="cls-1" d="M13.61,782.72c-1.22,4.17-6.56,19-6.72,19.5s-1,15.5,0,16.5,6.72,8.83,6.72,9.67Z"/><path class="cls-1" d="M97.34,782.72c1.23,4.17,6.56,19,6.73,19.5s1,15.5,0,16.5-6.73,8.83-6.73,9.67Z"/><path class="cls-1" d="M13.61,127.39S2.39,238.05,2.05,240.05c-2.66,11.09,4.84,24.71,11.56,53"/><path class="cls-1" d="M97.34,127.39s11.23,110.66,11.56,112.66c2.67,11.09-4.83,24.71-11.56,53"/><line class="cls-1" x1="35.96" y1="19.54" x2="75.19" y2="19.54"/><polygon class="cls-2" points="60.55 776.55 60.55 847.65 50.72 847.54 50.72 776.55 60.55 776.55"/><polyline class="cls-2" points="50.72 776.55 55.64 788.72 55.64 842.39 50.72 847.54"/><polyline class="cls-2" points="60.39 776.61 55.48 788.77 55.48 842.44 60.39 847.6"/><polygon class="cls-2" points="48.8 436.39 61.46 436.39 67.3 405.89 58.05 395.55 53.3 395.55 43.3 405.89 48.8 436.39"/><polygon class="cls-2" points="71.46 402.89 72.63 412.89 60.3 395.05 60.3 372.72 71.46 402.89"/><polygon class="cls-2" points="39.3 402.89 38.13 412.89 50.46 395.05 50.46 372.72 39.3 402.89"/><line class="cls-2" x1="50.46" y1="372.72" x2="60.29" y2="372.72"/><path class="cls-2" d="M50.46,395.05c1.67-8.33,8.17-8.33,9.83,0"/><line class="cls-2" x1="55.38" y1="436.39" x2="62.98" y2="428.45"/><line class="cls-2" x1="48.79" y1="436.39" x2="64.62" y2="419.89"/><line class="cls-2" x1="47.57" y1="429.59" x2="66.46" y2="410.24"/><line class="cls-2" x1="46.54" y1="423.9" x2="65.49" y2="403.88"/><line class="cls-2" x1="45.47" y1="417.98" x2="62.25" y2="400.26"/><line class="cls-2" x1="44.29" y1="411.43" x2="59.18" y2="396.82"/><line class="cls-2" x1="55.48" y1="436.39" x2="47.27" y2="427.82"/><line class="cls-2" x1="61.44" y1="435.45" x2="45.68" y2="419.02"/><line class="cls-2" x1="62.98" y1="429.56" x2="44.09" y2="410.21"/><line class="cls-2" x1="63.91" y1="423.58" x2="45.26" y2="403.88"/><line class="cls-2" x1="65.03" y1="417.71" x2="48.5" y2="400.26"/><line class="cls-2" x1="66.21" y1="411.19" x2="51.83" y2="397.07"/><path class="cls-2" d="M13.35,308.64c6.28,3.75,77.78,4.25,83.74,0"/><path class="cls-2" d="M85.38,308.64c-8,0-22.63-47.38-23.13-48.88-1.29-4.5-3.08-4.5-6.87-4.5"/><path class="cls-2" d="M25.38,308.64c8,0,22.62-47.38,23.12-48.88,1.29-4.5,3.09-4.5,6.88-4.5"/><path class="cls-2" d="M13.35,296.55s15.18,2.06,20.85,1"/><path class="cls-2" d="M49.15,258s6.23-166.6,6.23-168.6c-3-.88-22.69,208.38-22.69,208.38"/><path class="cls-2" d="M61.61,258s-6.23-166.6-6.23-168.6c3-.88,22.69,208.38,22.69,208.38"/><rect class="cls-2" x="79.32" y="141.14" width="15.06" height="22.25" rx="3.5" ry="3.5"/><rect class="cls-2" x="16.79" y="141.14" width="15.06" height="22.25" rx="3.5" ry="3.5"/><ellipse class="cls-2" cx="50.69" cy="152.26" rx="0.63" ry="1.13"/><circle class="cls-2" cx="50.07" cy="157.08" r="0.62"/><circle class="cls-2" cx="49.75" cy="160.01" r="0.56"/><ellipse class="cls-2" cx="60.2" cy="152.26" rx="0.63" ry="1.13"/><path class="cls-2" d="M60.2,157.08a.63.63,0,1,1,.63.62A.63.63,0,0,1,60.2,157.08Z"/><circle class="cls-2" cx="61.14" cy="160.01" r="0.56"/><circle class="cls-2" cx="55.38" cy="82.39" r="1.42"/><circle class="cls-2" cx="61.46" cy="82.39" r="1.42"/><circle class="cls-2" cx="67.38" cy="82.39" r="1.42"/><circle class="cls-2" cx="73.46" cy="82.39" r="1.33"/><circle class="cls-2" cx="78.63" cy="82.39" r="1.04"/><circle class="cls-2" cx="83.38" cy="82.39" r="1.04"/><circle class="cls-2" cx="87.72" cy="82.42" r="0.88"/><circle class="cls-2" cx="91.21" cy="82.05" r="0.88"/><circle class="cls-2" cx="49.29" cy="82.39" r="1.42"/><circle class="cls-2" cx="43.38" cy="82.39" r="1.42"/><circle class="cls-2" cx="37.29" cy="82.39" r="1.33"/><circle class="cls-2" cx="32.13" cy="82.39" r="1.04"/><circle class="cls-2" cx="27.38" cy="82.39" r="1.04"/><circle class="cls-2" cx="22.97" cy="82.27" r="0.88"/><circle class="cls-2" cx="19.54" cy="82.05" r="0.88"/><circle class="cls-2" cx="55.38" cy="63.14" r="1.26"/><circle class="cls-2" cx="60.81" cy="63.14" r="1.26"/><circle class="cls-2" cx="66.08" cy="63.14" r="1.26"/><circle class="cls-2" cx="71.51" cy="63.14" r="1.19"/><circle class="cls-2" cx="76.12" cy="63.14" r="0.93"/><circle class="cls-2" cx="80.36" cy="63.14" r="0.93"/><circle class="cls-2" cx="84.24" cy="63.17" r="0.78"/><circle class="cls-2" cx="87.35" cy="62.84" r="0.78"/><circle class="cls-2" cx="49.95" cy="63.14" r="1.26"/><circle class="cls-2" cx="44.67" cy="63.14" r="1.26"/><circle class="cls-2" cx="39.24" cy="63.14" r="1.19"/><circle class="cls-2" cx="34.64" cy="63.14" r="0.93"/><circle class="cls-2" cx="30.4" cy="63.14" r="0.93"/><circle class="cls-2" cx="26.47" cy="63.03" r="0.78"/><circle class="cls-2" cx="23.41" cy="62.84" r="0.78"/><path class="cls-2" d="M97.34,296.55s-15.18,2.06-20.84,1"/><circle class="cls-2" cx="55.5" cy="45.46" r="1.63"/><circle class="cls-2" cx="62.48" cy="45.46" r="1.63"/><circle class="cls-2" cx="69.27" cy="45.46" r="1.63"/><circle class="cls-2" cx="76.25" cy="45.46" r="1.53"/><circle class="cls-2" cx="82.18" cy="45.46" r="1.2"/><circle class="cls-2" cx="48.52" cy="45.46" r="1.63"/><circle class="cls-2" cx="41.73" cy="45.46" r="1.63"/><circle class="cls-2" cx="34.75" cy="45.46" r="1.53"/><circle class="cls-2" cx="28.82" cy="45.46" r="1.2"/><circle class="cls-2" cx="55.48" cy="28.39" r="1.63"/><circle class="cls-2" cx="62.46" cy="28.39" r="1.63"/><circle class="cls-2" cx="69.25" cy="28.39" r="1.63"/><circle class="cls-2" cx="76.23" cy="28.39" r="1.53"/><circle class="cls-2" cx="48.5" cy="28.39" r="1.63"/><circle class="cls-2" cx="41.71" cy="28.39" r="1.63"/><circle class="cls-2" cx="34.73" cy="28.39" r="1.53"/><line class="cls-2" x1="53.14" y1="19.54" x2="65.46" y2="6.06"/><line class="cls-2" x1="47.64" y1="19.54" x2="62.18" y2="3.54"/><line class="cls-2" x1="42.64" y1="19.54" x2="58.07" y2="1.8"/><line class="cls-2" x1="58.89" y1="19.54" x2="68.35" y2="9.13"/><line class="cls-2" x1="64.11" y1="19.54" x2="70.47" y2="12.8"/><line class="cls-2" x1="69.27" y1="19.54" x2="73.01" y2="15.81"/><line class="cls-2" x1="57.82" y1="19.54" x2="45.5" y2="6.06"/><line class="cls-2" x1="63.32" y1="19.54" x2="48.78" y2="3.54"/><line class="cls-2" x1="68.32" y1="19.54" x2="52.89" y2="1.8"/><line class="cls-2" x1="52.07" y1="19.54" x2="42.61" y2="9.13"/><line class="cls-2" x1="46.85" y1="19.54" x2="40.49" y2="12.8"/><line class="cls-2" x1="41.69" y1="19.54" x2="37.95" y2="15.81"/><line class="cls-2" x1="37.95" y1="19.54" x2="52.26" y2="2"/><line class="cls-2" x1="73.19" y1="19.54" x2="58.89" y2="2"/></g></g></svg>